<?xml version="1.0" encoding="utf-8" standalone="no"?>
<!DOCTYPE svg PUBLIC "-//W3C//DTD SVG 1.1//EN"
  "http://www.w3.org/Graphics/SVG/1.1/DTD/svg11.dtd">
<svg xmlns:xlink="http://www.w3.org/1999/xlink" width="720pt" height="216pt" viewBox="0 0 720 216" xmlns="http://www.w3.org/2000/svg" version="1.1">
 <metadata>
  <rdf:RDF xmlns:dc="http://purl.org/dc/elements/1.1/" xmlns:cc="http://creativecommons.org/ns#" xmlns:rdf="http://www.w3.org/1999/02/22-rdf-syntax-ns#">
   <cc:Work>
    <dc:type rdf:resource="http://purl.org/dc/dcmitype/StillImage"/>
    <dc:date>2026-05-05T05:35:28.202606</dc:date>
    <dc:format>image/svg+xml</dc:format>
    <dc:creator>
     <cc:Agent>
      <dc:title>Matplotlib v3.8.3, https://matplotlib.org/</dc:title>
     </cc:Agent>
    </dc:creator>
   </cc:Work>
  </rdf:RDF>
 </metadata>
 <defs>
  <style type="text/css">*{stroke-linejoin: round; stroke-linecap: butt}</style>
 </defs>
 <g id="figure_1">
  <g id="patch_1">
   <path d="M 0 216 
L 720 216 
L 720 0 
L 0 0 
z
" style="fill: #ffffff"/>
  </g>
  <g id="axes_1">
   <g id="patch_2">
    <path d="M 33.64 188.12 
L 354.6 188.12 
L 354.6 10.8 
L 33.64 10.8 
z
" style="fill: #ffffff"/>
   </g>
   <g id="matplotlib.axis_1">
    <g id="xtick_1">
     <g id="line2d_1">
      <defs>
       <path id="m9738d6a360" d="M 0 0 
L 0 3.5 
" style="stroke: #000000; stroke-width: 0.8"/>
      </defs>
      <g>
       <use xlink:href="#m9738d6a360" x="48.229091" y="188.12" style="stroke: #000000; stroke-width: 0.8"/>
      </g>
     </g>
     <g id="text_1">
      <!-- 0 -->
      <g transform="translate(45.047841 202.718437) scale(0.1 -0.1)">
       <defs>
        <path id="DejaVuSans-30" d="M 2034 4250 
Q 1547 4250 1301 3770 
Q 1056 3291 1056 2328 
Q 1056 1369 1301 889 
Q 1547 409 2034 409 
Q 2525 409 2770 889 
Q 3016 1369 3016 2328 
Q 3016 3291 2770 3770 
Q 2525 4250 2034 4250 
z
M 2034 4750 
Q 2819 4750 3233 4129 
Q 3647 3509 3647 2328 
Q 3647 1150 3233 529 
Q 2819 -91 2034 -91 
Q 1250 -91 836 529 
Q 422 1150 422 2328 
Q 422 3509 836 4129 
Q 1250 4750 2034 4750 
z
" transform="scale(0.015625)"/>
       </defs>
       <use xlink:href="#DejaVuSans-30"/>
      </g>
     </g>
    </g>
    <g id="xtick_2">
     <g id="line2d_2">
      <g>
       <use xlink:href="#m9738d6a360" x="106.585455" y="188.12" style="stroke: #000000; stroke-width: 0.8"/>
      </g>
     </g>
     <g id="text_2">
      <!-- 1 -->
      <g transform="translate(103.404205 202.718437) scale(0.1 -0.1)">
       <defs>
        <path id="DejaVuSans-31" d="M 794 531 
L 1825 531 
L 1825 4091 
L 703 3866 
L 703 4441 
L 1819 4666 
L 2450 4666 
L 2450 531 
L 3481 531 
L 3481 0 
L 794 0 
L 794 531 
z
" transform="scale(0.015625)"/>
       </defs>
       <use xlink:href="#DejaVuSans-31"/>
      </g>
     </g>
    </g>
    <g id="xtick_3">
     <g id="line2d_3">
      <g>
       <use xlink:href="#m9738d6a360" x="164.941818" y="188.12" style="stroke: #000000; stroke-width: 0.8"/>
      </g>
     </g>
     <g id="text_3">
      <!-- 2 -->
      <g transform="translate(161.760568 202.718437) scale(0.1 -0.1)">
       <defs>
        <path id="DejaVuSans-32" d="M 1228 531 
L 3431 531 
L 3431 0 
L 469 0 
L 469 531 
Q 828 903 1448 1529 
Q 2069 2156 2228 2338 
Q 2531 2678 2651 2914 
Q 2772 3150 2772 3378 
Q 2772 3750 2511 3984 
Q 2250 4219 1831 4219 
Q 1534 4219 1204 4116 
Q 875 4013 500 3803 
L 500 4441 
Q 881 4594 1212 4672 
Q 1544 4750 1819 4750 
Q 2544 4750 2975 4387 
Q 3406 4025 3406 3419 
Q 3406 3131 3298 2873 
Q 3191 2616 2906 2266 
Q 2828 2175 2409 1742 
Q 1991 1309 1228 531 
z
" transform="scale(0.015625)"/>
       </defs>
       <use xlink:href="#DejaVuSans-32"/>
      </g>
     </g>
    </g>
    <g id="xtick_4">
     <g id="line2d_4">
      <g>
       <use xlink:href="#m9738d6a360" x="223.298182" y="188.12" style="stroke: #000000; stroke-width: 0.8"/>
      </g>
     </g>
     <g id="text_4">
      <!-- 3 -->
      <g transform="translate(220.116932 202.718437) scale(0.1 -0.1)">
       <defs>
        <path id="DejaVuSans-33" d="M 2597 2516 
Q 3050 2419 3304 2112 
Q 3559 1806 3559 1356 
Q 3559 666 3084 287 
Q 2609 -91 1734 -91 
Q 1441 -91 1130 -33 
Q 819 25 488 141 
L 488 750 
Q 750 597 1062 519 
Q 1375 441 1716 441 
Q 2309 441 2620 675 
Q 2931 909 2931 1356 
Q 2931 1769 2642 2001 
Q 2353 2234 1838 2234 
L 1294 2234 
L 1294 2753 
L 1863 2753 
Q 2328 2753 2575 2939 
Q 2822 3125 2822 3475 
Q 2822 3834 2567 4026 
Q 2313 4219 1838 4219 
Q 1578 4219 1281 4162 
Q 984 4106 628 3988 
L 628 4550 
Q 988 4650 1302 4700 
Q 1616 4750 1894 4750 
Q 2613 4750 3031 4423 
Q 3450 4097 3450 3541 
Q 3450 3153 3228 2886 
Q 3006 2619 2597 2516 
z
" transform="scale(0.015625)"/>
       </defs>
       <use xlink:href="#DejaVuSans-33"/>
      </g>
     </g>
    </g>
    <g id="xtick_5">
     <g id="line2d_5">
      <g>
       <use xlink:href="#m9738d6a360" x="281.654545" y="188.12" style="stroke: #000000; stroke-width: 0.8"/>
      </g>
     </g>
     <g id="text_5">
      <!-- 4 -->
      <g transform="translate(278.473295 202.718437) scale(0.1 -0.1)">
       <defs>
        <path id="DejaVuSans-34" d="M 2419 4116 
L 825 1625 
L 2419 1625 
L 2419 4116 
z
M 2253 4666 
L 3047 4666 
L 3047 1625 
L 3713 1625 
L 3713 1100 
L 3047 1100 
L 3047 0 
L 2419 0 
L 2419 1100 
L 313 1100 
L 313 1709 
L 2253 4666 
z
" transform="scale(0.015625)"/>
       </defs>
       <use xlink:href="#DejaVuSans-34"/>
      </g>
     </g>
    </g>
    <g id="xtick_6">
     <g id="line2d_6">
      <g>
       <use xlink:href="#m9738d6a360" x="340.010909" y="188.12" style="stroke: #000000; stroke-width: 0.8"/>
      </g>
     </g>
     <g id="text_6">
      <!-- 5 -->
      <g transform="translate(336.829659 202.718437) scale(0.1 -0.1)">
       <defs>
        <path id="DejaVuSans-35" d="M 691 4666 
L 3169 4666 
L 3169 4134 
L 1269 4134 
L 1269 2991 
Q 1406 3038 1543 3061 
Q 1681 3084 1819 3084 
Q 2600 3084 3056 2656 
Q 3513 2228 3513 1497 
Q 3513 744 3044 326 
Q 2575 -91 1722 -91 
Q 1428 -91 1123 -41 
Q 819 9 494 109 
L 494 744 
Q 775 591 1075 516 
Q 1375 441 1709 441 
Q 2250 441 2565 725 
Q 2881 1009 2881 1497 
Q 2881 1984 2565 2268 
Q 2250 2553 1709 2553 
Q 1456 2553 1204 2497 
Q 953 2441 691 2322 
L 691 4666 
z
" transform="scale(0.015625)"/>
       </defs>
       <use xlink:href="#DejaVuSans-35"/>
      </g>
     </g>
    </g>
   </g>
   <g id="matplotlib.axis_2">
    <g id="ytick_1">
     <g id="line2d_7">
      <defs>
       <path id="ma29ae8bd39" d="M 0 0 
L -3.5 0 
" style="stroke: #000000; stroke-width: 0.8"/>
      </defs>
      <g>
       <use xlink:href="#ma29ae8bd39" x="33.64" y="180.06" style="stroke: #000000; stroke-width: 0.8"/>
      </g>
     </g>
     <g id="text_7">
      <!-- 0.0 -->
      <g transform="translate(10.736875 183.859219) scale(0.1 -0.1)">
       <defs>
        <path id="DejaVuSans-2e" d="M 684 794 
L 1344 794 
L 1344 0 
L 684 0 
L 684 794 
z
" transform="scale(0.015625)"/>
       </defs>
       <use xlink:href="#DejaVuSans-30"/>
       <use xlink:href="#DejaVuSans-2e" x="63.623047"/>
       <use xlink:href="#DejaVuSans-30" x="95.410156"/>
      </g>
     </g>
    </g>
    <g id="ytick_2">
     <g id="line2d_8">
      <g>
       <use xlink:href="#ma29ae8bd39" x="33.64" y="154.053904" style="stroke: #000000; stroke-width: 0.8"/>
      </g>
     </g>
     <g id="text_8">
      <!-- 0.1 -->
      <g transform="translate(10.736875 157.853122) scale(0.1 -0.1)">
       <use xlink:href="#DejaVuSans-30"/>
       <use xlink:href="#DejaVuSans-2e" x="63.623047"/>
       <use xlink:href="#DejaVuSans-31" x="95.410156"/>
      </g>
     </g>
    </g>
    <g id="ytick_3">
     <g id="line2d_9">
      <g>
       <use xlink:href="#ma29ae8bd39" x="33.64" y="128.047807" style="stroke: #000000; stroke-width: 0.8"/>
      </g>
     </g>
     <g id="text_9">
      <!-- 0.2 -->
      <g transform="translate(10.736875 131.847026) scale(0.1 -0.1)">
       <use xlink:href="#DejaVuSans-30"/>
       <use xlink:href="#DejaVuSans-2e" x="63.623047"/>
       <use xlink:href="#DejaVuSans-32" x="95.410156"/>
      </g>
     </g>
    </g>
    <g id="ytick_4">
     <g id="line2d_10">
      <g>
       <use xlink:href="#ma29ae8bd39" x="33.64" y="102.041711" style="stroke: #000000; stroke-width: 0.8"/>
      </g>
     </g>
     <g id="text_10">
      <!-- 0.3 -->
      <g transform="translate(10.736875 105.840929) scale(0.1 -0.1)">
       <use xlink:href="#DejaVuSans-30"/>
       <use xlink:href="#DejaVuSans-2e" x="63.623047"/>
       <use xlink:href="#DejaVuSans-33" x="95.410156"/>
      </g>
     </g>
    </g>
    <g id="ytick_5">
     <g id="line2d_11">
      <g>
       <use xlink:href="#ma29ae8bd39" x="33.64" y="76.035614" style="stroke: #000000; stroke-width: 0.8"/>
      </g>
     </g>
     <g id="text_11">
      <!-- 0.4 -->
      <g transform="translate(10.736875 79.834833) scale(0.1 -0.1)">
       <use xlink:href="#DejaVuSans-30"/>
       <use xlink:href="#DejaVuSans-2e" x="63.623047"/>
       <use xlink:href="#DejaVuSans-34" x="95.410156"/>
      </g>
     </g>
    </g>
    <g id="ytick_6">
     <g id="line2d_12">
      <g>
       <use xlink:href="#ma29ae8bd39" x="33.64" y="50.029518" style="stroke: #000000; stroke-width: 0.8"/>
      </g>
     </g>
     <g id="text_12">
      <!-- 0.5 -->
      <g transform="translate(10.736875 53.828736) scale(0.1 -0.1)">
       <use xlink:href="#DejaVuSans-30"/>
       <use xlink:href="#DejaVuSans-2e" x="63.623047"/>
       <use xlink:href="#DejaVuSans-35" x="95.410156"/>
      </g>
     </g>
    </g>
    <g id="ytick_7">
     <g id="line2d_13">
      <g>
       <use xlink:href="#ma29ae8bd39" x="33.64" y="24.023421" style="stroke: #000000; stroke-width: 0.8"/>
      </g>
     </g>
     <g id="text_13">
      <!-- 0.6 -->
      <g transform="translate(10.736875 27.82264) scale(0.1 -0.1)">
       <defs>
        <path id="DejaVuSans-36" d="M 2113 2584 
Q 1688 2584 1439 2293 
Q 1191 2003 1191 1497 
Q 1191 994 1439 701 
Q 1688 409 2113 409 
Q 2538 409 2786 701 
Q 3034 994 3034 1497 
Q 3034 2003 2786 2293 
Q 2538 2584 2113 2584 
z
M 3366 4563 
L 3366 3988 
Q 3128 4100 2886 4159 
Q 2644 4219 2406 4219 
Q 1781 4219 1451 3797 
Q 1122 3375 1075 2522 
Q 1259 2794 1537 2939 
Q 1816 3084 2150 3084 
Q 2853 3084 3261 2657 
Q 3669 2231 3669 1497 
Q 3669 778 3244 343 
Q 2819 -91 2113 -91 
Q 1303 -91 875 529 
Q 447 1150 447 2328 
Q 447 3434 972 4092 
Q 1497 4750 2381 4750 
Q 2619 4750 2861 4703 
Q 3103 4656 3366 4563 
z
" transform="scale(0.015625)"/>
       </defs>
       <use xlink:href="#DejaVuSans-30"/>
       <use xlink:href="#DejaVuSans-2e" x="63.623047"/>
       <use xlink:href="#DejaVuSans-36" x="95.410156"/>
      </g>
     </g>
    </g>
   </g>
   <g id="line2d_14">
    <path d="M 48.229091 180.06 
L 51.146909 179.426527 
L 54.064727 177.595999 
L 56.982545 174.679591 
L 59.900364 170.795564 
L 62.818182 166.067358 
L 65.736 160.622115 
L 68.653818 154.588579 
L 71.571636 148.095805 
L 74.489455 141.27158 
L 77.407273 134.240351 
L 80.325091 127.122815 
L 83.242909 120.034171 
L 86.160727 113.08241 
L 89.078545 106.368332 
L 91.996364 99.984667 
L 94.914182 94.014294 
L 97.832 88.530297 
L 100.749818 83.596355 
L 103.667636 79.265478 
L 106.585455 75.579679 
L 109.503273 72.570767 
L 112.421091 70.260435 
L 115.338909 68.660064 
L 118.256727 67.771006 
L 121.174545 67.585619 
L 124.092364 68.087543 
L 127.010182 69.252332 
L 129.928 71.048083 
L 132.845818 73.436209 
L 135.763636 76.372544 
L 138.681455 79.807953 
L 141.599273 83.688986 
L 144.517091 87.958978 
L 147.434909 92.559205 
L 150.352727 97.429327 
L 153.270545 102.507844 
L 156.188364 107.733828 
L 159.106182 113.047392 
L 162.024 118.389881 
L 164.941818 123.704547 
L 167.859636 128.938009 
L 170.777455 134.040383 
L 173.695273 138.965112 
L 176.613091 143.669685 
L 179.530909 148.116567 
L 182.448727 152.273171 
L 185.366545 156.111405 
L 188.284364 159.608165 
L 191.202182 162.745724 
L 194.12 165.511622 
L 197.037818 167.898054 
L 199.955636 169.902063 
L 202.873455 171.525427 
L 205.791273 172.774487 
L 208.709091 173.65955 
L 211.626909 174.194751 
L 214.544727 174.397604 
L 217.462545 174.288792 
L 220.380364 173.891684 
L 223.298182 173.231883 
L 226.216 172.33671 
L 229.133818 171.234959 
L 232.051636 169.956599 
L 234.969455 168.531985 
L 237.887273 166.991588 
L 240.805091 165.365843 
L 243.722909 163.684719 
L 246.640727 161.977042 
L 249.558545 160.270419 
L 252.476364 158.591231 
L 255.394182 156.964069 
L 258.312 155.411384 
L 261.229818 153.953522 
L 264.147636 152.608804 
L 267.065455 151.393061 
L 269.983273 150.31952 
L 272.901091 149.398979 
L 275.818909 148.639859 
L 278.736727 148.048031 
L 281.654545 147.626835 
L 284.572364 147.377331 
L 287.490182 147.298351 
L 290.408 147.386601 
L 293.325818 147.636763 
L 296.243636 148.041726 
L 299.161455 148.59276 
L 302.079273 149.279699 
L 304.997091 150.091089 
L 307.914909 151.014426 
L 310.832727 152.036432 
L 313.750545 153.143172 
L 316.668364 154.320193 
L 319.586182 155.552918 
L 322.504 156.826761 
L 325.421818 158.127183 
L 328.339636 159.439943 
L 331.257455 160.751401 
L 334.175273 162.048527 
L 337.093091 163.318964 
L 340.010909 164.551276 
" clip-path="url(#p152dc7e155)" style="fill: none; stroke: #1f77b4; stroke-width: 1.5; stroke-linecap: square"/>
   </g>
   <g id="line2d_15">
    <path d="M 48.229091 180.06 
L 51.146909 179.394077 
L 54.064727 177.337799 
L 56.982545 174.440634 
L 59.900364 171.033211 
L 62.818182 165.767076 
L 65.736 159.274217 
L 68.653818 151.594149 
L 71.571636 142.801201 
L 74.489455 133.006638 
L 77.407273 122.357503 
L 80.325091 111.034568 
L 83.242909 99.246121 
L 86.160727 87.220937 
L 89.078545 75.198862 
L 91.996364 63.419775 
L 94.914182 68.107731 
L 97.832 58.814747 
L 100.749818 50.281948 
L 103.667636 42.641813 
L 106.585455 35.994968 
L 109.503273 30.410669 
L 112.421091 25.926892 
L 115.338909 22.553741 
L 118.256727 20.27712 
L 121.174545 19.062528 
L 124.092364 18.86 
L 127.010182 19.607913 
L 129.928 21.236823 
L 132.845818 23.672834 
L 135.763636 26.840094 
L 138.681455 30.662826 
L 141.599273 35.06706 
L 144.517091 39.981304 
L 147.434909 45.337413 
L 150.352727 51.070865 
L 153.270545 57.120389 
L 156.188364 63.428394 
L 159.106182 69.939993 
L 162.024 76.602782 
L 164.941818 83.366515 
L 167.859636 90.181823 
L 170.777455 97.00037 
L 173.695273 103.773622 
L 176.613091 110.452174 
L 179.530909 116.985622 
L 182.448727 123.321144 
L 185.366545 129.40363 
L 188.284364 141.587 
L 191.202182 146.21386 
L 194.12 150.464852 
L 197.037818 154.280534 
L 199.955636 157.598644 
L 202.873455 166.922895 
L 205.791273 168.340751 
L 208.709091 169.294789 
L 211.626909 169.741363 
L 214.544727 169.639325 
L 217.462545 168.951834 
L 220.380364 167.648659 
L 223.298182 165.708528 
L 226.216 163.121899 
L 229.133818 159.89327 
L 232.051636 156.043734 
L 234.969455 151.61228 
L 237.887273 146.657027 
L 240.805091 141.254538 
L 243.722909 135.49857 
L 246.640727 129.497104 
L 249.558545 123.36816 
L 252.476364 117.235323 
L 255.394182 111.221661 
L 258.312 105.445093 
L 261.229818 100.012831 
L 264.147636 95.017793 
L 267.065455 90.535751 
L 269.983273 86.62356 
L 272.901091 83.319384 
L 275.818909 80.643069 
L 278.736727 78.598224 
L 281.654545 77.174279 
L 284.572364 76.349103 
L 287.490182 76.091622 
L 290.408 76.364245 
L 293.325818 77.125091 
L 296.243636 78.329874 
L 299.161455 79.933389 
L 302.079273 81.890745 
L 304.997091 84.158129 
L 307.914909 86.693511 
L 310.832727 89.456817 
L 313.750545 92.410286 
L 316.668364 95.518269 
L 319.586182 98.747305 
L 322.504 102.065852 
L 325.421818 105.444009 
L 328.339636 108.853442 
L 331.257455 112.266788 
L 334.175273 115.657741 
L 337.093091 119.000434 
L 340.010909 122.269389 
" clip-path="url(#p152dc7e155)" style="fill: none; stroke: #ff7f0e; stroke-width: 1.5; stroke-linecap: square"/>
   </g>
   <g id="patch_3">
    <path d="M 33.64 188.12 
L 33.64 10.8 
" style="fill: none; stroke: #000000; stroke-width: 0.8; stroke-linejoin: miter; stroke-linecap: square"/>
   </g>
   <g id="patch_4">
    <path d="M 354.6 188.12 
L 354.6 10.8 
" style="fill: none; stroke: #000000; stroke-width: 0.8; stroke-linejoin: miter; stroke-linecap: square"/>
   </g>
   <g id="patch_5">
    <path d="M 33.64 188.12 
L 354.6 188.12 
" style="fill: none; stroke: #000000; stroke-width: 0.8; stroke-linejoin: miter; stroke-linecap: square"/>
   </g>
   <g id="patch_6">
    <path d="M 33.64 10.8 
L 354.6 10.8 
" style="fill: none; stroke: #000000; stroke-width: 0.8; stroke-linejoin: miter; stroke-linecap: square"/>
   </g>
  </g>
  <g id="axes_2">
   <g id="patch_7">
    <path d="M 388.24 188.12 
L 709.2 188.12 
L 709.2 10.8 
L 388.24 10.8 
z
" style="fill: #ffffff"/>
   </g>
   <g id="matplotlib.axis_3">
    <g id="xtick_7">
     <g id="line2d_16">
      <g>
       <use xlink:href="#m9738d6a360" x="402.829091" y="188.12" style="stroke: #000000; stroke-width: 0.8"/>
      </g>
     </g>
     <g id="text_14">
      <!-- 0 -->
      <g transform="translate(399.647841 202.718437) scale(0.1 -0.1)">
       <use xlink:href="#DejaVuSans-30"/>
      </g>
     </g>
    </g>
    <g id="xtick_8">
     <g id="line2d_17">
      <g>
       <use xlink:href="#m9738d6a360" x="461.185455" y="188.12" style="stroke: #000000; stroke-width: 0.8"/>
      </g>
     </g>
     <g id="text_15">
      <!-- 1 -->
      <g transform="translate(458.004205 202.718437) scale(0.1 -0.1)">
       <use xlink:href="#DejaVuSans-31"/>
      </g>
     </g>
    </g>
    <g id="xtick_9">
     <g id="line2d_18">
      <g>
       <use xlink:href="#m9738d6a360" x="519.541818" y="188.12" style="stroke: #000000; stroke-width: 0.8"/>
      </g>
     </g>
     <g id="text_16">
      <!-- 2 -->
      <g transform="translate(516.360568 202.718437) scale(0.1 -0.1)">
       <use xlink:href="#DejaVuSans-32"/>
      </g>
     </g>
    </g>
    <g id="xtick_10">
     <g id="line2d_19">
      <g>
       <use xlink:href="#m9738d6a360" x="577.898182" y="188.12" style="stroke: #000000; stroke-width: 0.8"/>
      </g>
     </g>
     <g id="text_17">
      <!-- 3 -->
      <g transform="translate(574.716932 202.718437) scale(0.1 -0.1)">
       <use xlink:href="#DejaVuSans-33"/>
      </g>
     </g>
    </g>
    <g id="xtick_11">
     <g id="line2d_20">
      <g>
       <use xlink:href="#m9738d6a360" x="636.254545" y="188.12" style="stroke: #000000; stroke-width: 0.8"/>
      </g>
     </g>
     <g id="text_18">
      <!-- 4 -->
      <g transform="translate(633.073295 202.718437) scale(0.1 -0.1)">
       <use xlink:href="#DejaVuSans-34"/>
      </g>
     </g>
    </g>
    <g id="xtick_12">
     <g id="line2d_21">
      <g>
       <use xlink:href="#m9738d6a360" x="694.610909" y="188.12" style="stroke: #000000; stroke-width: 0.8"/>
      </g>
     </g>
     <g id="text_19">
      <!-- 5 -->
      <g transform="translate(691.429659 202.718437) scale(0.1 -0.1)">
       <use xlink:href="#DejaVuSans-35"/>
      </g>
     </g>
    </g>
   </g>
   <g id="matplotlib.axis_4">
    <g id="ytick_8">
     <g id="line2d_22">
      <g>
       <use xlink:href="#ma29ae8bd39" x="388.24" y="180.071179" style="stroke: #000000; stroke-width: 0.8"/>
      </g>
     </g>
     <g id="text_20">
      <!-- 0.0 -->
      <g transform="translate(365.336875 183.870398) scale(0.1 -0.1)">
       <use xlink:href="#DejaVuSans-30"/>
       <use xlink:href="#DejaVuSans-2e" x="63.623047"/>
       <use xlink:href="#DejaVuSans-30" x="95.410156"/>
      </g>
     </g>
    </g>
    <g id="ytick_9">
     <g id="line2d_23">
      <g>
       <use xlink:href="#ma29ae8bd39" x="388.24" y="147.828943" style="stroke: #000000; stroke-width: 0.8"/>
      </g>
     </g>
     <g id="text_21">
      <!-- 0.2 -->
      <g transform="translate(365.336875 151.628162) scale(0.1 -0.1)">
       <use xlink:href="#DejaVuSans-30"/>
       <use xlink:href="#DejaVuSans-2e" x="63.623047"/>
       <use xlink:href="#DejaVuSans-32" x="95.410156"/>
      </g>
     </g>
    </g>
    <g id="ytick_10">
     <g id="line2d_24">
      <g>
       <use xlink:href="#ma29ae8bd39" x="388.24" y="115.586708" style="stroke: #000000; stroke-width: 0.8"/>
      </g>
     </g>
     <g id="text_22">
      <!-- 0.4 -->
      <g transform="translate(365.336875 119.385926) scale(0.1 -0.1)">
       <use xlink:href="#DejaVuSans-30"/>
       <use xlink:href="#DejaVuSans-2e" x="63.623047"/>
       <use xlink:href="#DejaVuSans-34" x="95.410156"/>
      </g>
     </g>
    </g>
    <g id="ytick_11">
     <g id="line2d_25">
      <g>
       <use xlink:href="#ma29ae8bd39" x="388.24" y="83.344472" style="stroke: #000000; stroke-width: 0.8"/>
      </g>
     </g>
     <g id="text_23">
      <!-- 0.6 -->
      <g transform="translate(365.336875 87.14369) scale(0.1 -0.1)">
       <use xlink:href="#DejaVuSans-30"/>
       <use xlink:href="#DejaVuSans-2e" x="63.623047"/>
       <use xlink:href="#DejaVuSans-36" x="95.410156"/>
      </g>
     </g>
    </g>
    <g id="ytick_12">
     <g id="line2d_26">
      <g>
       <use xlink:href="#ma29ae8bd39" x="388.24" y="51.102236" style="stroke: #000000; stroke-width: 0.8"/>
      </g>
     </g>
     <g id="text_24">
      <!-- 0.8 -->
      <g transform="translate(365.336875 54.901455) scale(0.1 -0.1)">
       <defs>
        <path id="DejaVuSans-38" d="M 2034 2216 
Q 1584 2216 1326 1975 
Q 1069 1734 1069 1313 
Q 1069 891 1326 650 
Q 1584 409 2034 409 
Q 2484 409 2743 651 
Q 3003 894 3003 1313 
Q 3003 1734 2745 1975 
Q 2488 2216 2034 2216 
z
M 1403 2484 
Q 997 2584 770 2862 
Q 544 3141 544 3541 
Q 544 4100 942 4425 
Q 1341 4750 2034 4750 
Q 2731 4750 3128 4425 
Q 3525 4100 3525 3541 
Q 3525 3141 3298 2862 
Q 3072 2584 2669 2484 
Q 3125 2378 3379 2068 
Q 3634 1759 3634 1313 
Q 3634 634 3220 271 
Q 2806 -91 2034 -91 
Q 1263 -91 848 271 
Q 434 634 434 1313 
Q 434 1759 690 2068 
Q 947 2378 1403 2484 
z
M 1172 3481 
Q 1172 3119 1398 2916 
Q 1625 2713 2034 2713 
Q 2441 2713 2670 2916 
Q 2900 3119 2900 3481 
Q 2900 3844 2670 4047 
Q 2441 4250 2034 4250 
Q 1625 4250 1398 4047 
Q 1172 3844 1172 3481 
z
" transform="scale(0.015625)"/>
       </defs>
       <use xlink:href="#DejaVuSans-30"/>
       <use xlink:href="#DejaVuSans-2e" x="63.623047"/>
       <use xlink:href="#DejaVuSans-38" x="95.410156"/>
      </g>
     </g>
    </g>
    <g id="ytick_13">
     <g id="line2d_27">
      <g>
       <use xlink:href="#ma29ae8bd39" x="388.24" y="18.86" style="stroke: #000000; stroke-width: 0.8"/>
      </g>
     </g>
     <g id="text_25">
      <!-- 1.0 -->
      <g transform="translate(365.336875 22.659219) scale(0.1 -0.1)">
       <use xlink:href="#DejaVuSans-31"/>
       <use xlink:href="#DejaVuSans-2e" x="63.623047"/>
       <use xlink:href="#DejaVuSans-30" x="95.410156"/>
      </g>
     </g>
    </g>
   </g>
   <g id="line2d_28">
    <path d="M 402.829091 18.86 
L 405.746909 27.108544 
L 408.664727 35.678337 
L 411.582545 44.486471 
L 414.500364 53.449796 
L 417.418182 62.486096 
L 420.336 71.514928 
L 423.253818 80.458804 
L 426.171636 89.243843 
L 429.089455 97.800524 
L 432.007273 106.064735 
L 434.925091 113.977798 
L 437.842909 121.487193 
L 440.760727 128.547293 
L 443.678545 135.119099 
L 446.596364 141.170442 
L 449.514182 146.676543 
L 452.432 151.61978 
L 455.349818 155.989247 
L 458.267636 159.780895 
L 461.185455 162.997426 
L 464.103273 165.647678 
L 467.021091 167.746322 
L 469.938909 169.313342 
L 472.856727 170.373768 
L 475.774545 170.957023 
L 478.692364 171.096369 
L 481.610182 170.828179 
L 484.528 170.191582 
L 487.445818 169.227983 
L 490.363636 167.980052 
L 493.281455 166.491308 
L 496.199273 164.80585 
L 499.117091 162.967584 
L 502.034909 161.019445 
L 504.952727 159.003256 
L 507.870545 156.959541 
L 510.788364 154.926511 
L 513.706182 152.939824 
L 516.624 151.032679 
L 519.541818 149.235486 
L 522.459636 147.575194 
L 525.377455 146.075278 
L 528.295273 144.756039 
L 531.213091 143.634314 
L 534.130909 142.723209 
L 537.048727 142.032172 
L 539.966545 141.567414 
L 542.884364 141.331789 
L 545.802182 141.324883 
L 548.72 141.543117 
L 551.637818 141.98018 
L 554.555636 142.627105 
L 557.473455 143.472616 
L 560.391273 144.503246 
L 563.309091 145.703684 
L 566.226909 147.057036 
L 569.144727 148.545281 
L 572.062545 150.149378 
L 574.980364 151.849501 
L 577.898182 153.625455 
L 580.816 155.457043 
L 583.733818 157.324157 
L 586.651636 159.20692 
L 589.569455 161.086202 
L 592.487273 162.943768 
L 595.405091 164.762276 
L 598.322909 166.525507 
L 601.240727 168.218717 
L 604.158545 169.828641 
L 607.076364 171.343405 
L 609.994182 172.752783 
L 612.912 174.04833 
L 615.829818 175.223291 
L 618.747636 176.27251 
L 621.665455 177.19255 
L 624.583273 177.981693 
L 627.501091 178.639792 
L 630.418909 179.168195 
L 633.336727 179.569674 
L 636.254545 179.848379 
L 639.172364 180.009665 
L 642.090182 180.06 
L 645.008 180.00678 
L 647.925818 179.858256 
L 650.843636 179.623395 
L 653.761455 179.311698 
L 656.679273 178.933048 
L 659.597091 178.497642 
L 662.514909 178.015822 
L 665.432727 177.497874 
L 668.350545 176.953981 
L 671.268364 176.394156 
L 674.186182 175.827996 
L 677.104 175.26462 
L 680.021818 174.712681 
L 682.939636 174.180236 
L 685.857455 173.674584 
L 688.775273 173.202289 
L 691.693091 172.769194 
L 694.610909 172.380301 
" clip-path="url(#p3ceecefed4)" style="fill: none; stroke: #1f77b4; stroke-width: 1.5; stroke-linecap: square"/>
   </g>
   <g id="line2d_29">
    <path d="M 402.829091 18.86 
L 405.746909 19.272804 
L 408.664727 20.547486 
L 411.582545 38.464549 
L 414.500364 56.697921 
L 417.418182 59.962386 
L 420.336 63.987293 
L 423.253818 68.74815 
L 426.171636 74.198877 
L 429.089455 80.270504 
L 432.007273 86.871878 
L 434.925091 93.890938 
L 437.842909 101.198569 
L 440.760727 108.652952 
L 443.678545 116.105408 
L 446.596364 123.407237 
L 449.514182 136.622302 
L 452.432 142.383 
L 455.349818 147.672463 
L 458.267636 152.408564 
L 461.185455 156.528928 
L 464.103273 159.990621 
L 467.021091 162.770104 
L 469.938909 164.861112 
L 472.856727 166.272385 
L 475.774545 167.025307 
L 478.692364 167.150854 
L 481.610182 166.687225 
L 484.528 165.677467 
L 487.445818 164.16739 
L 490.363636 162.204012 
L 493.281455 159.83431 
L 496.199273 157.104136 
L 499.117091 154.057807 
L 502.034909 150.737568 
L 504.952727 147.183414 
L 507.870545 143.433329 
L 510.788364 139.523011 
L 513.706182 135.486487 
L 516.624 131.35624 
L 519.541818 127.163417 
L 522.459636 122.938624 
L 525.377455 118.711822 
L 528.295273 114.513099 
L 531.213091 110.373081 
L 534.130909 106.323012 
L 537.048727 102.395637 
L 539.966545 98.625118 
L 542.884364 107.193794 
L 545.802182 104.325614 
L 548.72 101.690434 
L 551.637818 99.325102 
L 554.555636 97.268213 
L 557.473455 123.730368 
L 560.391273 122.851442 
L 563.309091 122.260036 
L 566.226909 121.983206 
L 569.144727 122.046459 
L 572.062545 122.472633 
L 574.980364 123.280469 
L 577.898182 124.483151 
L 580.816 126.086597 
L 583.733818 128.088016 
L 586.651636 130.474334 
L 589.569455 133.221382 
L 592.487273 136.293131 
L 595.405091 139.642122 
L 598.322909 143.210233 
L 601.240727 146.930527 
L 604.158545 150.729845 
L 607.076364 154.531577 
L 609.994182 158.259432 
L 612.912 161.840313 
L 615.829818 165.207759 
L 618.747636 168.304171 
L 621.665455 171.082578 
L 624.583273 173.507736 
L 627.501091 175.555987 
L 630.418909 177.215029 
L 633.336727 178.482623 
L 636.254545 179.365323 
L 639.172364 179.876848 
L 642.090182 180.03646 
L 645.008 179.867462 
L 647.925818 179.395815 
L 650.843636 178.648973 
L 653.761455 177.654958 
L 656.679273 176.441597 
L 659.597091 175.036052 
L 662.514909 173.464374 
L 665.432727 171.751407 
L 668.350545 169.920558 
L 671.268364 167.993928 
L 674.186182 165.992256 
L 677.104 163.935096 
L 680.021818 161.840984 
L 682.939636 159.727485 
L 685.857455 157.61156 
L 688.775273 155.509516 
L 691.693091 153.437389 
L 694.610909 151.410971 
" clip-path="url(#p3ceecefed4)" style="fill: none; stroke: #ff7f0e; stroke-width: 1.5; stroke-linecap: square"/>
   </g>
   <g id="patch_8">
    <path d="M 388.24 188.12 
L 388.24 10.8 
" style="fill: none; stroke: #000000; stroke-width: 0.8; stroke-linejoin: miter; stroke-linecap: square"/>
   </g>
   <g id="patch_9">
    <path d="M 709.2 188.12 
L 709.2 10.8 
" style="fill: none; stroke: #000000; stroke-width: 0.8; stroke-linejoin: miter; stroke-linecap: square"/>
   </g>
   <g id="patch_10">
    <path d="M 388.24 188.12 
L 709.2 188.12 
" style="fill: none; stroke: #000000; stroke-width: 0.8; stroke-linejoin: miter; stroke-linecap: square"/>
   </g>
   <g id="patch_11">
    <path d="M 388.24 10.8 
L 709.2 10.8 
" style="fill: none; stroke: #000000; stroke-width: 0.8; stroke-linejoin: miter; stroke-linecap: square"/>
   </g>
  </g>
 </g>
 <defs>
  <clipPath id="p152dc7e155">
   <rect x="33.64" y="10.8" width="320.96" height="177.32"/>
  </clipPath>
  <clipPath id="p3ceecefed4">
   <rect x="388.24" y="10.8" width="320.96" height="177.32"/>
  </clipPath>
 </defs>
</svg>
